<svg width="417" height="96" viewBox="0 0 417 96" fill="none" xmlns="http://www.w3.org/2000/svg">
<path d="M28.7188 50.9844V59H24.0312V36.25H32.9062C34.6146 36.25 36.1146 36.5625 37.4062 37.1875C38.7083 37.8125 39.7083 38.7031 40.4062 39.8594C41.1042 41.0052 41.4531 42.3125 41.4531 43.7812C41.4531 46.0104 40.6875 47.7708 39.1562 49.0625C37.6354 50.3438 35.526 50.9844 32.8281 50.9844H28.7188ZM28.7188 47.1875H32.9062C34.1458 47.1875 35.0885 46.8958 35.7344 46.3125C36.3906 45.7292 36.7188 44.8958 36.7188 43.8125C36.7188 42.6979 36.3906 41.7969 35.7344 41.1094C35.0781 40.4219 34.1719 40.0677 33.0156 40.0469H28.7188V47.1875ZM54 59C53.7917 58.5938 53.6406 58.0885 53.5469 57.4844C52.4531 58.7031 51.0312 59.3125 49.2812 59.3125C47.625 59.3125 46.25 58.8333 45.1562 57.875C44.0729 56.9167 43.5312 55.7083 43.5312 54.25C43.5312 52.4583 44.1927 51.0833 45.5156 50.125C46.849 49.1667 48.7708 48.6823 51.2812 48.6719H53.3594V47.7031C53.3594 46.9219 53.1562 46.2969 52.75 45.8281C52.3542 45.3594 51.724 45.125 50.8594 45.125C50.099 45.125 49.5 45.3073 49.0625 45.6719C48.6354 46.0365 48.4219 46.5365 48.4219 47.1719H43.9062C43.9062 46.1927 44.2083 45.2865 44.8125 44.4531C45.4167 43.6198 46.2708 42.9688 47.375 42.5C48.4792 42.0208 49.7188 41.7812 51.0938 41.7812C53.1771 41.7812 54.8281 42.3073 56.0469 43.3594C57.276 44.401 57.8906 45.8698 57.8906 47.7656V55.0938C57.901 56.6979 58.125 57.9115 58.5625 58.7344V59H54ZM50.2656 55.8594C50.9323 55.8594 51.5469 55.7135 52.1094 55.4219C52.6719 55.1198 53.0885 54.7188 53.3594 54.2188V51.3125H51.6719C49.4115 51.3125 48.2083 52.0938 48.0625 53.6562L48.0469 53.9219C48.0469 54.4844 48.2448 54.9479 48.6406 55.3125C49.0365 55.6771 49.5781 55.8594 50.2656 55.8594ZM70.8594 46.3281C70.2448 46.2448 69.7031 46.2031 69.2344 46.2031C67.526 46.2031 66.4062 46.7812 65.875 47.9375V59H61.3594V42.0938H65.625L65.75 44.1094C66.6562 42.5573 67.9115 41.7812 69.5156 41.7812C70.0156 41.7812 70.4844 41.849 70.9219 41.9844L70.8594 46.3281ZM82.375 59C82.1667 58.5938 82.0156 58.0885 81.9219 57.4844C80.8281 58.7031 79.4062 59.3125 77.6562 59.3125C76 59.3125 74.625 58.8333 73.5312 57.875C72.4479 56.9167 71.9062 55.7083 71.9062 54.25C71.9062 52.4583 72.5677 51.0833 73.8906 50.125C75.224 49.1667 77.1458 48.6823 79.6562 48.6719H81.7344V47.7031C81.7344 46.9219 81.5312 46.2969 81.125 45.8281C80.7292 45.3594 80.099 45.125 79.2344 45.125C78.474 45.125 77.875 45.3073 77.4375 45.6719C77.0104 46.0365 76.7969 46.5365 76.7969 47.1719H72.2812C72.2812 46.1927 72.5833 45.2865 73.1875 44.4531C73.7917 43.6198 74.6458 42.9688 75.75 42.5C76.8542 42.0208 78.0938 41.7812 79.4688 41.7812C81.5521 41.7812 83.2031 42.3073 84.4219 43.3594C85.651 44.401 86.2656 45.8698 86.2656 47.7656V55.0938C86.276 56.6979 86.5 57.9115 86.9375 58.7344V59H82.375ZM78.6406 55.8594C79.3073 55.8594 79.9219 55.7135 80.4844 55.4219C81.0469 55.1198 81.4635 54.7188 81.7344 54.2188V51.3125H80.0469C77.7865 51.3125 76.5833 52.0938 76.4375 53.6562L76.4219 53.9219C76.4219 54.4844 76.6198 54.9479 77.0156 55.3125C77.4115 55.6771 77.9531 55.8594 78.6406 55.8594ZM94.6094 59H90.0938V42.0938H94.6094V59ZM93.2812 35.2344H98.2031L93.875 40.0781H90.2031L93.2812 35.2344ZM107.672 54.3281C107.672 53.776 107.396 53.3438 106.844 53.0312C106.302 52.7083 105.427 52.4219 104.219 52.1719C100.198 51.3281 98.1875 49.6198 98.1875 47.0469C98.1875 45.5469 98.8073 44.2969 100.047 43.2969C101.297 42.2865 102.927 41.7812 104.938 41.7812C107.083 41.7812 108.797 42.2865 110.078 43.2969C111.37 44.3073 112.016 45.6198 112.016 47.2344H107.5C107.5 46.5885 107.292 46.0573 106.875 45.6406C106.458 45.2135 105.807 45 104.922 45C104.161 45 103.573 45.1719 103.156 45.5156C102.74 45.8594 102.531 46.2969 102.531 46.8281C102.531 47.3281 102.766 47.7344 103.234 48.0469C103.714 48.349 104.516 48.6146 105.641 48.8438C106.766 49.0625 107.714 49.3125 108.484 49.5938C110.87 50.4688 112.062 51.9844 112.062 54.1406C112.062 55.6823 111.401 56.9323 110.078 57.8906C108.755 58.8385 107.047 59.3125 104.953 59.3125C103.536 59.3125 102.276 59.0625 101.172 58.5625C100.078 58.0521 99.2188 57.3594 98.5938 56.4844C97.9688 55.599 97.6562 54.6458 97.6562 53.625H101.938C101.979 54.4271 102.276 55.0417 102.828 55.4688C103.38 55.8958 104.12 56.1094 105.047 56.1094C105.911 56.1094 106.562 55.9479 107 55.625C107.448 55.2917 107.672 54.8594 107.672 54.3281ZM114.281 50.3906C114.281 48.7135 114.604 47.2188 115.25 45.9062C115.896 44.5938 116.823 43.5781 118.031 42.8594C119.25 42.1406 120.661 41.7812 122.266 41.7812C124.547 41.7812 126.406 42.4792 127.844 43.875C129.292 45.2708 130.099 47.1667 130.266 49.5625L130.297 50.7188C130.297 53.3125 129.573 55.3958 128.125 56.9688C126.677 58.5312 124.734 59.3125 122.297 59.3125C119.859 59.3125 117.911 58.5312 116.453 56.9688C115.005 55.4062 114.281 53.2812 114.281 50.5938V50.3906ZM118.797 50.7188C118.797 52.3229 119.099 53.5521 119.703 54.4062C120.307 55.25 121.172 55.6719 122.297 55.6719C123.391 55.6719 124.245 55.2552 124.859 54.4219C125.474 53.5781 125.781 52.2344 125.781 50.3906C125.781 48.8177 125.474 47.599 124.859 46.7344C124.245 45.8698 123.38 45.4375 122.266 45.4375C121.161 45.4375 120.307 45.8698 119.703 46.7344C119.099 47.5885 118.797 48.9167 118.797 50.7188ZM140.344 50.4219C140.344 47.7865 140.932 45.6875 142.109 44.125C143.297 42.5625 144.917 41.7812 146.969 41.7812C148.615 41.7812 149.974 42.3958 151.047 43.625V35H155.578V59H151.5L151.281 57.2031C150.156 58.6094 148.708 59.3125 146.938 59.3125C144.948 59.3125 143.349 58.5312 142.141 56.9688C140.943 55.3958 140.344 53.2135 140.344 50.4219ZM144.859 50.75C144.859 52.3333 145.135 53.5469 145.688 54.3906C146.24 55.2344 147.042 55.6562 148.094 55.6562C149.49 55.6562 150.474 55.0677 151.047 53.8906V47.2188C150.484 46.0417 149.51 45.4531 148.125 45.4531C145.948 45.4531 144.859 47.2188 144.859 50.75ZM158.375 50.3906C158.375 48.7135 158.698 47.2188 159.344 45.9062C159.99 44.5938 160.917 43.5781 162.125 42.8594C163.344 42.1406 164.755 41.7812 166.359 41.7812C168.641 41.7812 170.5 42.4792 171.938 43.875C173.385 45.2708 174.193 47.1667 174.359 49.5625L174.391 50.7188C174.391 53.3125 173.667 55.3958 172.219 56.9688C170.771 58.5312 168.828 59.3125 166.391 59.3125C163.953 59.3125 162.005 58.5312 160.547 56.9688C159.099 55.4062 158.375 53.2812 158.375 50.5938V50.3906ZM162.891 50.7188C162.891 52.3229 163.193 53.5521 163.797 54.4062C164.401 55.25 165.266 55.6719 166.391 55.6719C167.484 55.6719 168.339 55.2552 168.953 54.4219C169.568 53.5781 169.875 52.2344 169.875 50.3906C169.875 48.8177 169.568 47.599 168.953 46.7344C168.339 45.8698 167.474 45.4375 166.359 45.4375C165.255 45.4375 164.401 45.8698 163.797 46.7344C163.193 47.5885 162.891 48.9167 162.891 50.7188ZM185.438 59V36.25H192.438C194.438 36.25 196.224 36.7031 197.797 37.6094C199.38 38.5052 200.615 39.7865 201.5 41.4531C202.385 43.1094 202.828 44.9948 202.828 47.1094V48.1562C202.828 50.2708 202.391 52.151 201.516 53.7969C200.651 55.4427 199.427 56.7188 197.844 57.625C196.26 58.5312 194.474 58.9896 192.484 59H185.438ZM190.125 40.0469V55.2344H192.391C194.224 55.2344 195.625 54.6354 196.594 53.4375C197.562 52.2396 198.057 50.526 198.078 48.2969V47.0938C198.078 44.7812 197.599 43.0312 196.641 41.8438C195.682 40.6458 194.281 40.0469 192.438 40.0469H190.125ZM213.734 59.3125C211.255 59.3125 209.234 58.5521 207.672 57.0312C206.12 55.5104 205.344 53.4844 205.344 50.9531V50.5156C205.344 48.8177 205.672 47.3021 206.328 45.9688C206.984 44.625 207.911 43.5938 209.109 42.875C210.318 42.1458 211.693 41.7812 213.234 41.7812C215.547 41.7812 217.365 42.5104 218.688 43.9688C220.021 45.4271 220.688 47.4948 220.688 50.1719V52.0156H209.922C210.068 53.1198 210.505 54.0052 211.234 54.6719C211.974 55.3385 212.906 55.6719 214.031 55.6719C215.771 55.6719 217.13 55.0417 218.109 53.7812L220.328 56.2656C219.651 57.224 218.734 57.974 217.578 58.5156C216.422 59.0469 215.141 59.3125 213.734 59.3125ZM213.219 45.4375C212.323 45.4375 211.594 45.7396 211.031 46.3438C210.479 46.9479 210.125 47.8125 209.969 48.9375H216.25V48.5781C216.229 47.5781 215.958 46.8073 215.438 46.2656C214.917 45.7135 214.177 45.4375 213.219 45.4375ZM232.422 54.3281C232.422 53.776 232.146 53.3438 231.594 53.0312C231.052 52.7083 230.177 52.4219 228.969 52.1719C224.948 51.3281 222.938 49.6198 222.938 47.0469C222.938 45.5469 223.557 44.2969 224.797 43.2969C226.047 42.2865 227.677 41.7812 229.688 41.7812C231.833 41.7812 233.547 42.2865 234.828 43.2969C236.12 44.3073 236.766 45.6198 236.766 47.2344H232.25C232.25 46.5885 232.042 46.0573 231.625 45.6406C231.208 45.2135 230.557 45 229.672 45C228.911 45 228.323 45.1719 227.906 45.5156C227.49 45.8594 227.281 46.2969 227.281 46.8281C227.281 47.3281 227.516 47.7344 227.984 48.0469C228.464 48.349 229.266 48.6146 230.391 48.8438C231.516 49.0625 232.464 49.3125 233.234 49.5938C235.62 50.4688 236.812 51.9844 236.812 54.1406C236.812 55.6823 236.151 56.9323 234.828 57.8906C233.505 58.8385 231.797 59.3125 229.703 59.3125C228.286 59.3125 227.026 59.0625 225.922 58.5625C224.828 58.0521 223.969 57.3594 223.344 56.4844C222.719 55.599 222.406 54.6458 222.406 53.625H226.688C226.729 54.4271 227.026 55.0417 227.578 55.4688C228.13 55.8958 228.87 56.1094 229.797 56.1094C230.661 56.1094 231.312 55.9479 231.75 55.625C232.198 55.2917 232.422 54.8594 232.422 54.3281ZM247.516 59.3125C245.036 59.3125 243.016 58.5521 241.453 57.0312C239.901 55.5104 239.125 53.4844 239.125 50.9531V50.5156C239.125 48.8177 239.453 47.3021 240.109 45.9688C240.766 44.625 241.693 43.5938 242.891 42.875C244.099 42.1458 245.474 41.7812 247.016 41.7812C249.328 41.7812 251.146 42.5104 252.469 43.9688C253.802 45.4271 254.469 47.4948 254.469 50.1719V52.0156H243.703C243.849 53.1198 244.286 54.0052 245.016 54.6719C245.755 55.3385 246.688 55.6719 247.812 55.6719C249.552 55.6719 250.911 55.0417 251.891 53.7812L254.109 56.2656C253.432 57.224 252.516 57.974 251.359 58.5156C250.203 59.0469 248.922 59.3125 247.516 59.3125ZM247 45.4375C246.104 45.4375 245.375 45.7396 244.812 46.3438C244.26 46.9479 243.906 47.8125 243.75 48.9375H250.031V48.5781C250.01 47.5781 249.74 46.8073 249.219 46.2656C248.698 45.7135 247.958 45.4375 247 45.4375ZM266.547 46.3281C265.932 46.2448 265.391 46.2031 264.922 46.2031C263.214 46.2031 262.094 46.7812 261.562 47.9375V59H257.047V42.0938H261.312L261.438 44.1094C262.344 42.5573 263.599 41.7812 265.203 41.7812C265.703 41.7812 266.172 41.849 266.609 41.9844L266.547 46.3281ZM274.922 37.9375V42.0938H277.812V45.4062H274.922V53.8438C274.922 54.4688 275.042 54.9167 275.281 55.1875C275.521 55.4583 275.979 55.5938 276.656 55.5938C277.156 55.5938 277.599 55.5573 277.984 55.4844V58.9062C277.099 59.1771 276.188 59.3125 275.25 59.3125C272.083 59.3125 270.469 57.7135 270.406 54.5156V45.4062H267.938V42.0938H270.406V37.9375H274.922ZM279.156 50.3906C279.156 48.7135 279.479 47.2188 280.125 45.9062C280.771 44.5938 281.698 43.5781 282.906 42.8594C284.125 42.1406 285.536 41.7812 287.141 41.7812C289.422 41.7812 291.281 42.4792 292.719 43.875C294.167 45.2708 294.974 47.1667 295.141 49.5625L295.172 50.7188C295.172 53.3125 294.448 55.3958 293 56.9688C291.552 58.5312 289.609 59.3125 287.172 59.3125C284.734 59.3125 282.786 58.5312 281.328 56.9688C279.88 55.4062 279.156 53.2812 279.156 50.5938V50.3906ZM283.672 50.7188C283.672 52.3229 283.974 53.5521 284.578 54.4062C285.182 55.25 286.047 55.6719 287.172 55.6719C288.266 55.6719 289.12 55.2552 289.734 54.4219C290.349 53.5781 290.656 52.2344 290.656 50.3906C290.656 48.8177 290.349 47.599 289.734 46.7344C289.12 45.8698 288.255 45.4375 287.141 45.4375C286.036 45.4375 285.182 45.8698 284.578 46.7344C283.974 47.5885 283.672 48.9167 283.672 50.7188ZM318.016 53.0312C318.016 52.1458 317.703 51.4688 317.078 51C316.453 50.5208 315.328 50.0208 313.703 49.5C312.078 48.9688 310.792 48.4479 309.844 47.9375C307.26 46.5417 305.969 44.6615 305.969 42.2969C305.969 41.0677 306.312 39.974 307 39.0156C307.698 38.0469 308.693 37.2917 309.984 36.75C311.286 36.2083 312.745 35.9375 314.359 35.9375C315.984 35.9375 317.432 36.2344 318.703 36.8281C319.974 37.4115 320.958 38.2396 321.656 39.3125C322.365 40.3854 322.719 41.6042 322.719 42.9688H318.031C318.031 41.9271 317.703 41.1198 317.047 40.5469C316.391 39.9635 315.469 39.6719 314.281 39.6719C313.135 39.6719 312.245 39.9167 311.609 40.4062C310.974 40.8854 310.656 41.5208 310.656 42.3125C310.656 43.0521 311.026 43.6719 311.766 44.1719C312.516 44.6719 313.615 45.1406 315.062 45.5781C317.729 46.3802 319.672 47.375 320.891 48.5625C322.109 49.75 322.719 51.2292 322.719 53C322.719 54.9688 321.974 56.5156 320.484 57.6406C318.995 58.7552 316.99 59.3125 314.469 59.3125C312.719 59.3125 311.125 58.9948 309.688 58.3594C308.25 57.7135 307.151 56.8333 306.391 55.7188C305.641 54.6042 305.266 53.3125 305.266 51.8438H309.969C309.969 54.3542 311.469 55.6094 314.469 55.6094C315.583 55.6094 316.453 55.3854 317.078 54.9375C317.703 54.4792 318.016 53.8438 318.016 53.0312ZM325.844 56.7812C325.844 56.0625 326.083 55.4792 326.562 55.0312C327.052 54.5833 327.661 54.3594 328.391 54.3594C329.13 54.3594 329.74 54.5833 330.219 55.0312C330.708 55.4792 330.953 56.0625 330.953 56.7812C330.953 57.4896 330.714 58.0677 330.234 58.5156C329.755 58.9531 329.141 59.1719 328.391 59.1719C327.651 59.1719 327.042 58.9531 326.562 58.5156C326.083 58.0677 325.844 57.4896 325.844 56.7812ZM335.219 59V36.25H342.219C344.219 36.25 346.005 36.7031 347.578 37.6094C349.161 38.5052 350.396 39.7865 351.281 41.4531C352.167 43.1094 352.609 44.9948 352.609 47.1094V48.1562C352.609 50.2708 352.172 52.151 351.297 53.7969C350.432 55.4427 349.208 56.7188 347.625 57.625C346.042 58.5312 344.255 58.9896 342.266 59H335.219ZM339.906 40.0469V55.2344H342.172C344.005 55.2344 345.406 54.6354 346.375 53.4375C347.344 52.2396 347.839 50.526 347.859 48.2969V47.0938C347.859 44.7812 347.38 43.0312 346.422 41.8438C345.464 40.6458 344.062 40.0469 342.219 40.0469H339.906Z" fill="#FAFAFA"/>
<path d="M376.744 47.5053C376.594 47.6727 376.484 47.8734 376.424 48.0968C376.323 48.4711 376.375 48.862 376.569 49.1975C376.837 49.6624 377.326 49.9225 377.827 49.9225C377.926 49.9225 378.024 49.9121 378.122 49.8917C378.312 50.4707 378.858 50.89 379.5 50.89C380.142 50.89 380.687 50.4707 380.878 49.8917C380.976 49.9121 381.074 49.9225 381.173 49.9225C381.674 49.9225 382.163 49.6624 382.431 49.1975C382.625 48.862 382.676 48.471 382.576 48.0968C382.516 47.8734 382.406 47.6726 382.256 47.5053C382.662 47.0508 382.752 46.3687 382.431 45.8127C382.238 45.4771 381.925 45.2371 381.55 45.1368C381.327 45.077 381.098 45.0724 380.878 45.1187C380.687 44.5396 380.142 44.1203 379.5 44.1203C378.858 44.1203 378.312 44.5396 378.122 45.1187C377.902 45.0724 377.673 45.077 377.449 45.1368C377.075 45.2372 376.762 45.4771 376.569 45.8127C376.248 46.3687 376.338 47.0508 376.744 47.5053V47.5053ZM379.983 47.5052C379.983 47.7719 379.767 47.9887 379.5 47.9887C379.233 47.9887 379.016 47.7719 379.016 47.5052C379.016 47.2385 379.233 47.0216 379.5 47.0216C379.767 47.0216 379.983 47.2385 379.983 47.5052V47.5052ZM379.5 49.9229C379.233 49.9229 379.016 49.706 379.016 49.4394C379.016 49.1727 379.233 48.9558 379.5 48.9558C379.767 48.9558 379.983 49.1727 379.983 49.4394C379.983 49.706 379.767 49.9229 379.5 49.9229ZM379.5 45.0875C379.767 45.0875 379.983 45.3043 379.983 45.571C379.983 45.8377 379.767 46.0546 379.5 46.0546C379.233 46.0546 379.016 45.8377 379.016 45.571C379.016 45.3043 379.233 45.0875 379.5 45.0875ZM377.826 46.0544C378.092 46.0544 378.309 46.2712 378.309 46.5379C378.309 46.8046 378.092 47.0215 377.826 47.0215C377.559 47.0215 377.342 46.8046 377.342 46.5379C377.342 46.2712 377.559 46.0544 377.826 46.0544ZM381.174 46.0544C381.441 46.0544 381.658 46.2712 381.658 46.5379C381.658 46.8046 381.441 47.0215 381.174 47.0215C380.908 47.0215 380.691 46.8046 380.691 46.5379C380.691 46.2712 380.908 46.0544 381.174 46.0544ZM377.342 48.4725C377.342 48.2058 377.559 47.9889 377.826 47.9889C378.092 47.9889 378.309 48.2058 378.309 48.4725C378.309 48.7391 378.092 48.956 377.826 48.956C377.559 48.956 377.342 48.7391 377.342 48.4725ZM380.691 48.4725C380.691 48.2058 380.908 47.9889 381.174 47.9889C381.441 47.9889 381.658 48.2058 381.658 48.4725C381.658 48.7391 381.441 48.956 381.174 48.956C380.908 48.956 380.691 48.7391 380.691 48.4725Z" fill="#FAFAFA"/>
<path d="M394.439 45.1964C393.572 44.3296 392.464 43.8072 391.298 43.6717C392.162 42.8765 392.751 41.8025 392.943 40.5918C393.258 38.606 392.442 36.6384 390.816 35.4566L387.462 33.0198C385.835 31.838 383.712 31.6709 381.921 32.5837C380.829 33.1402 379.989 34.0327 379.5 35.1C379.011 34.0327 378.171 33.1401 377.079 32.5837C375.288 31.6709 373.164 31.838 371.538 33.0198L368.184 35.4566C366.557 36.6384 365.742 38.6061 366.057 40.5918C366.249 41.8025 366.838 42.8766 367.702 43.6718C366.536 43.8073 365.428 44.3296 364.561 45.1964C363.139 46.6181 362.642 48.6892 363.263 50.6013L364.544 54.544C365.166 56.4562 366.785 57.8394 368.771 58.154C369.053 58.1987 369.335 58.2205 369.614 58.2205C370.533 58.2205 371.424 57.9829 372.208 57.5413C371.977 58.6923 372.131 59.9077 372.688 60.9998C373.601 62.7912 375.417 63.9041 377.427 63.9041H381.573C383.583 63.9041 385.399 62.7912 386.312 60.9998C386.869 59.9077 387.023 58.6924 386.792 57.5414C387.576 57.9831 388.467 58.2206 389.386 58.2206C389.665 58.2206 389.947 58.1987 390.229 58.1541C392.215 57.8395 393.835 56.4563 394.456 54.5441L395.737 50.6014C396.358 48.6892 395.861 46.6181 394.439 45.1964V45.1964ZM366.696 45.7965C367.614 44.8781 368.9 44.5695 370.135 44.9708L373.599 46.0964C372.088 46.991 370.947 48.4437 370.451 50.1602C370.396 50.3503 370.462 50.5546 370.619 50.676C372.029 51.7733 373.806 52.2777 375.554 52.1132L373.413 55.06C372.65 56.1108 371.428 56.6168 370.145 56.4136C368.863 56.2105 367.857 55.3516 367.456 54.1164L365.87 49.236C365.469 48.0007 365.777 46.7149 366.696 45.7965V45.7965ZM381.832 34.7997C382.989 34.2101 384.307 34.3139 385.358 35.0773L389.509 38.0935C390.56 38.8569 391.066 40.0786 390.863 41.3614C390.66 42.6442 389.801 43.6497 388.566 44.0511L385.102 45.1767C385.799 43.5647 385.868 41.7187 385.26 40.0385C385.193 39.8524 385.019 39.7262 384.821 39.7196C383.036 39.6601 381.302 40.2972 379.984 41.4581V37.8156C379.983 36.5168 380.674 35.3893 381.832 34.7997V34.7997ZM384.152 44.9309C383.401 43.5787 382.078 42.5868 380.512 42.2839C381.578 41.2952 382.986 40.7185 384.456 40.6845C384.878 42.0934 384.764 43.6107 384.152 44.9309V44.9309ZM379.5 43.1533C381.9 43.1533 383.852 45.1055 383.852 47.5052C383.852 49.9049 381.9 51.8571 379.5 51.8571C377.1 51.8571 375.148 49.9049 375.148 47.5052C375.148 45.1055 377.1 43.1533 379.5 43.1533V43.1533ZM375.616 51.1342C374.171 51.3083 372.692 50.9475 371.482 50.1104C371.968 48.7227 372.952 47.5622 374.222 46.8534C374.196 47.0672 374.181 47.2844 374.181 47.5052C374.181 48.907 374.727 50.1831 375.616 51.1342ZM379.5 52.8242C380.304 52.8242 381.067 52.6439 381.751 52.323C381.469 53.7501 380.669 55.0443 379.5 55.9361C378.331 55.0443 377.531 53.7501 377.249 52.323C377.933 52.6439 378.696 52.8242 379.5 52.8242ZM384.819 47.5052C384.819 47.2844 384.804 47.0672 384.778 46.8534C386.048 47.5623 387.031 48.7228 387.518 50.1104C386.308 50.9476 384.829 51.3082 383.384 51.1342C384.273 50.183 384.819 48.907 384.819 47.5052V47.5052ZM374.847 44.9309C374.236 43.6108 374.122 42.0935 374.544 40.6845C376.014 40.7186 377.422 41.2952 378.488 42.2839C376.922 42.5868 375.599 43.5787 374.847 44.9309ZM374.196 55.6284L376.337 52.6817C376.721 54.3952 377.749 55.9295 379.229 56.9317C379.311 56.9872 379.405 57.0149 379.5 57.0149C379.595 57.0149 379.689 56.9872 379.771 56.9317C381.251 55.9295 382.279 54.3953 382.663 52.6817L384.805 55.629C385.568 56.6796 385.671 57.9976 385.082 59.1547C384.492 60.312 383.365 61.0029 382.066 61.0029H376.934C375.635 61.0029 374.508 60.312 373.918 59.1547C373.329 57.9974 373.432 56.6792 374.196 55.6284V55.6284ZM388.854 56.4136C387.572 56.6166 386.35 56.1108 385.587 55.0606L383.446 52.1132C385.194 52.2775 386.971 51.7732 388.381 50.676C388.538 50.5546 388.604 50.3503 388.549 50.1602C388.053 48.4436 386.912 46.991 385.401 46.0964L388.865 44.9706C390.1 44.5697 391.386 44.8783 392.304 45.7965C393.223 46.715 393.531 48.0007 393.13 49.236L391.544 54.1165C391.143 55.3516 390.137 56.2104 388.854 56.4136V56.4136ZM382.36 33.4454C383.848 32.6873 385.543 32.8207 386.894 33.8022L390.247 36.2389C391.598 37.2205 392.249 38.7912 391.988 40.4406C391.959 40.6241 391.919 40.8029 391.869 40.9769C391.92 39.541 391.262 38.1715 390.078 37.3111L385.926 34.2949C384.742 33.4345 383.236 33.2321 381.886 33.7239C382.037 33.623 382.194 33.5297 382.36 33.4454V33.4454ZM368.752 36.2389L372.106 33.8022C373.457 32.8205 375.152 32.6873 376.64 33.4454C376.806 33.5297 376.963 33.6231 377.114 33.7239C375.763 33.232 374.258 33.4345 373.074 34.2949L371.78 35.2346C371.564 35.3916 371.516 35.694 371.673 35.91C371.83 36.1262 372.133 36.1741 372.349 36.017L373.642 35.0773C374.693 34.3138 376.011 34.21 377.168 34.7997C378.326 35.3894 379.016 36.5168 379.016 37.8156V41.458C377.698 40.2972 375.963 39.6605 374.179 39.7196C373.981 39.7262 373.807 39.8524 373.74 40.0384C373.132 41.7186 373.201 43.5647 373.898 45.1766L370.434 44.0512C369.199 43.6497 368.34 42.6442 368.137 41.3614C367.934 40.0786 368.44 38.8569 369.49 38.0935L370.784 37.1538C371 36.9968 371.048 36.6944 370.891 36.4784C370.734 36.2623 370.431 36.2144 370.215 36.3714L368.922 37.3111C367.738 38.1714 367.08 39.5409 367.131 40.9769C367.081 40.8029 367.041 40.6241 367.012 40.4406C366.751 38.7912 367.401 37.2205 368.752 36.2389V36.2389ZM365.464 54.2453L364.183 50.3025C363.667 48.7143 364.064 47.0612 365.245 45.8803C365.376 45.749 365.513 45.6279 365.656 45.5162C364.771 46.6482 364.498 48.1428 364.95 49.5348L366.536 54.4153C366.988 55.8074 368.088 56.8562 369.469 57.2518C369.288 57.2451 369.106 57.2279 368.922 57.1989C367.273 56.9376 365.98 55.8335 365.464 54.2453V54.2453ZM381.573 62.937H377.427C375.757 62.937 374.308 62.0487 373.549 60.5608C373.465 60.3953 373.392 60.2271 373.33 60.0572C374.133 61.2486 375.47 61.9699 376.934 61.9699H382.066C383.529 61.9699 384.867 61.2486 385.67 60.0572C385.607 60.2271 385.535 60.3953 385.45 60.5608C384.692 62.0487 383.243 62.937 381.573 62.937ZM394.817 50.3025L393.536 54.2453C393.02 55.8335 391.727 56.9376 390.078 57.1989C389.894 57.228 389.712 57.2451 389.531 57.2519C390.912 56.8563 392.011 55.8074 392.464 54.4153L394.05 49.5348C394.502 48.1428 394.229 46.6482 393.344 45.5162C393.487 45.6279 393.624 45.749 393.755 45.8803C394.936 47.0611 395.333 48.7143 394.817 50.3025V50.3025Z" fill="#FAFAFA"/>
</svg>
